<?xml version="1.0" encoding="utf-8"?>
<!-- Generator: Adobe Illustrator 23.0.3, SVG Export Plug-In . SVG Version: 6.00 Build 0)  -->
<svg version="1.1" id="Phone_x5F_1" xmlns="http://www.w3.org/2000/svg" xmlns:xlink="http://www.w3.org/1999/xlink" x="0px"
	 y="0px" viewBox="0 0 1650 3000" style="enable-background:new 0 0 1650 3000;" xml:space="preserve">
<style type="text/css">
	.st0{fill:#202223;}
	.st1{fill:#2C2E30;}
	.st2{opacity:0.13;fill:#D1E0ED;enable-background:new    ;}
	.st3{fill:#141414;}
	.st4{fill:#2D2F30;}
	.st5{fill:#252728;}
	.st6{fill:#393C42;}
	.st7{fill:#58606D;}
</style>
<g id="Phone_1">
	<g>
		<g>
			<path class="st0" d="M1400.4,2910.5H249.6c-55.6,0-104.8-28-134.3-70.6c22.4,52.1,74.1,88.6,134.3,88.6h1150.8
				c60.2,0,111.9-36.5,134.3-88.6C1505.2,2882.6,1456,2910.5,1400.4,2910.5z"/>
			<path class="st1" d="M175.1,2587.5V1534.9l-71.6-60.4v1272.7c0,80.5,65.5,146.1,146.1,146.1h1150.8
				c80.5,0,146.1-65.5,146.1-146.1V2691l-122.8-103.5H175.1z"/>
			<path class="st1" d="M1546.5,201.7c-0.1-5.7-0.5-11.4-1.2-16.9c-0.5-3.6-1.1-7.2-1.8-10.7c-2-9.6-4.9-18.8-8.7-27.6
				c-22.4-52.1-74.1-88.6-134.3-88.6H249.6c-60.2,0-111.9,36.5-134.3,88.6c-3.8,8.8-6.7,18-8.7,27.6c-0.7,3.5-1.3,7.1-1.8,10.7
				c-0.7,5.6-1.1,11.2-1.2,16.9c0,0.7,0,1.5,0,2.2v35.2v13.5v81.1l71.6,61.1v-118H1475v1227.3l71.6,61.1V252.7v-13.5V204
				C1546.5,203.2,1546.5,202.5,1546.5,201.7z"/>
			<polygon class="st1" points="1474.9,2587.5 1423.7,2587.5 1546.5,2691 1546.5,1565.2 1474.9,1504.1 			"/>
			<polygon class="st2" points="1474.9,2587.5 1423.7,2587.5 1546.5,2691 1546.5,1565.2 1474.9,1504.1 			"/>
			<polygon class="st1" points="175.1,394.9 103.5,333.8 103.5,1474.6 175.1,1534.9 			"/>
			<polygon class="st2" points="175.1,394.9 103.5,333.8 103.5,1474.6 175.1,1534.9 			"/>
			<path class="st3" d="M1400.4,40.7H249.6c-90,0-163.2,73.2-163.2,163.2v35.2v13.5v2494.6v35.2v13.5c0,90,73.2,163.2,163.2,163.2
				h1150.8c90,0,163.2-73.2,163.2-163.2v-13.5v-35.2V252.7v-13.5V204C1563.6,114,1490.4,40.7,1400.4,40.7z M1400.4,2928.6H249.6
				c-60.2,0-111.9-36.5-134.3-88.6c29.5,42.6,78.7,70.6,134.3,70.6h1150.8c55.6,0,104.8-28,134.3-70.6
				C1512.3,2892,1460.6,2928.6,1400.4,2928.6z M1546.5,1565.2V2691v56.3c0,80.5-65.5,146.1-146.1,146.1H249.6
				c-80.5,0-146.1-65.5-146.1-146.1V1474.6V333.8v-81.1v-13.5V204c0-0.7,0-1.5,0-2.2c0.1-5.7,0.5-11.4,1.2-16.9
				c0.5-3.6,1.1-7.2,1.8-10.7c2-9.6,4.9-18.8,8.7-27.6C137.6,94.5,189.3,58,249.5,58h1150.8c60.2,0,111.9,36.5,134.3,88.6
				c3.8,8.8,6.7,18,8.7,27.6c0.7,3.5,1.3,7.1,1.8,10.7c0.7,5.6,1.1,11.2,1.2,16.9c0,0.7,0,1.5,0,2.2v35.2v13.5v1312.5H1546.5z"/>
		</g>
		<g>
			<circle class="st4" cx="310" cy="172.4" r="48.6"/>
			<path class="st3" d="M310,227.3c-30.3,0-54.9-24.6-54.9-54.9s24.6-54.9,54.9-54.9s54.9,24.6,54.9,54.9S340.2,227.3,310,227.3z
				 M310,130.1c-23.3,0-42.3,19-42.3,42.3s19,42.3,42.3,42.3s42.3-19,42.3-42.3S333.3,130.1,310,130.1z"/>
		</g>
		<g>
			<path class="st5" d="M1062.3,199.3H587.7c-13.9,0-25.1-11.2-25.1-25.1l0,0c0-13.9,11.2-25.1,25.1-25.1h474.5
				c13.9,0,25.1,11.2,25.1,25.1l0,0C1087.4,188.1,1076.1,199.3,1062.3,199.3z"/>
			<path class="st3" d="M1062.3,205.7H587.7c-17.3,0-31.4-14.1-31.4-31.4s14.1-31.4,31.4-31.4h474.5c17.3,0,31.4,14.1,31.4,31.4
				S1079.6,205.7,1062.3,205.7z M587.7,155.4c-10.4,0-18.8,8.4-18.8,18.8s8.4,18.8,18.8,18.8h474.5c10.4,0,18.8-8.4,18.8-18.8
				s-8.4-18.8-18.8-18.8H587.7z"/>
		</g>
		<g>
			<circle class="st6" cx="310" cy="168.8" r="48.6"/>
			<path class="st3" d="M310,223.7c-30.3,0-54.9-24.6-54.9-54.9s24.6-54.9,54.9-54.9s54.9,24.6,54.9,54.9S340.2,223.7,310,223.7z
				 M310,126.5c-23.3,0-42.3,19-42.3,42.3s19,42.3,42.3,42.3s42.3-19,42.3-42.3S333.3,126.5,310,126.5z"/>
		</g>
		<g>
			<path class="st5" d="M1062.3,193.9H587.7c-13.9,0-25.1-11.2-25.1-25.1l0,0c0-13.9,11.2-25.1,25.1-25.1h474.5
				c13.9,0,25.1,11.2,25.1,25.1l0,0C1087.4,182.7,1076.1,193.9,1062.3,193.9z"/>
			<path class="st3" d="M1062.3,200.2H587.7c-17.3,0-31.4-14.1-31.4-31.4s14.1-31.4,31.4-31.4h474.5c17.3,0,31.4,14.1,31.4,31.4
				S1079.6,200.2,1062.3,200.2z M587.7,150c-10.4,0-18.8,8.4-18.8,18.8c0,10.4,8.4,18.8,18.8,18.8h474.5c10.4,0,18.8-8.4,18.8-18.8
				c0-10.4-8.4-18.8-18.8-18.8H587.7z"/>
		</g>
		<g>
			<path class="st1" d="M1087.4,168.8L1087.4,168.8c0,13.9-11.2,25.1-25.1,25.1H587.7c-13.9,0-25.1-11.2-25.1-25.1l0,0"/>
			<path class="st3" d="M1062.3,200.2H587.7c-17.3,0-31.4-14.1-31.4-31.4h12.6c0,10.4,8.4,18.8,18.8,18.8h474.5
				c10.4,0,18.8-8.4,18.8-18.8h12.6C1093.7,186.1,1079.6,200.2,1062.3,200.2z"/>
		</g>
		<circle class="st7" cx="322.5" cy="151" r="17.8"/>
		<circle class="st4" cx="310" cy="172.4" r="48.6"/>
		<path class="st5" d="M1062.3,199.3H587.7c-13.9,0-25.1-11.2-25.1-25.1l0,0c0-13.9,11.2-25.1,25.1-25.1h474.5
			c13.9,0,25.1,11.2,25.1,25.1l0,0C1087.4,188.1,1076.1,199.3,1062.3,199.3z"/>
		<g>
			<circle class="st6" cx="310" cy="168.8" r="48.6"/>
			<path class="st3" d="M364.9,168.8c0-30.3-24.6-54.9-54.9-54.9s-54.9,24.6-54.9,54.9c0,0.6,0,1.2,0,1.8s0,1.2,0,1.8
				c0,30.3,24.6,54.9,54.9,54.9s54.9-24.6,54.9-54.9c0-0.6,0-1.2,0-1.8C364.8,170,364.9,169.4,364.9,168.8z M310,211.1
				c-22.7,0-41.3-18-42.2-40.5c0.9-22.5,19.5-40.5,42.2-40.5s41.3,18,42.2,40.5C351.2,193.1,332.7,211.1,310,211.1z"/>
		</g>
		<g>
			<path class="st5" d="M1062.3,193.9H587.7c-13.9,0-25.1-11.2-25.1-25.1l0,0c0-13.9,11.2-25.1,25.1-25.1h474.5
				c13.9,0,25.1,11.2,25.1,25.1l0,0C1087.4,182.7,1076.1,193.9,1062.3,193.9z"/>
			<path class="st3" d="M1062.3,200.2H587.7c-17.3,0-31.4-14.1-31.4-31.4s14.1-31.4,31.4-31.4h474.5c17.3,0,31.4,14.1,31.4,31.4
				S1079.6,200.2,1062.3,200.2z M587.7,150c-10.4,0-18.8,8.4-18.8,18.8c0,10.4,8.4,18.8,18.8,18.8h474.5c10.4,0,18.8-8.4,18.8-18.8
				c0-10.4-8.4-18.8-18.8-18.8H587.7z"/>
		</g>
		<g>
			<path class="st1" d="M1087.4,168.8L1087.4,168.8c0,13.9-11.2,25.1-25.1,25.1H587.7c-13.9,0-25.1-11.2-25.1-25.1l0,0"/>
			<path class="st3" d="M1093.7,168.8h-0.5c-2.6-14.8-15.5-26-31-26H587.7c-15.5,0-28.4,11.3-31,26h-0.5c0,0.9,0,1.8,0.1,2.7
				c-0.1,0.9-0.1,1.8-0.1,2.7c0,17.3,14.1,31.4,31.4,31.4h474.5c17.3,0,31.4-14.1,31.4-31.4c0-0.9,0-1.8-0.1-2.7
				C1093.7,170.6,1093.7,169.7,1093.7,168.8z M587.7,155.4h474.5c9.4,0,17.3,7,18.6,16.1c-1.3,9.1-9.1,16.1-18.6,16.1H587.7
				c-9.4,0-17.3-7-18.6-16.1C570.5,162.4,578.3,155.4,587.7,155.4z"/>
		</g>
		<circle class="st7" cx="322.5" cy="151" r="17.8"/>
		<g>
			<path class="st5" d="M921.9,2828.2H664.4c-44.3,0-80.2-35.9-80.2-80.2v-19.4c0-44.3,35.9-80.2,80.2-80.2h257.5
				c44.3,0,80.2,35.9,80.2,80.2v19.4C1002,2792.3,966.2,2828.2,921.9,2828.2z"/>
			<g>
				<path class="st1" d="M1002,2737.4c0,44.3-35.9,80.2-80.2,80.2H664.4c-44.3,0-80.2-35.9-80.2-80.2"/>
				<path class="st3" d="M921.9,2642.1H664.4c-47.7,0-86.5,38.8-86.5,86.5v19.4c0,47.7,38.8,86.5,86.5,86.5h257.5
					c47.7,0,86.5-38.8,86.5-86.5v-19.4C1008.4,2680.9,969.6,2642.1,921.9,2642.1z M921.9,2811.2H664.4c-40.7,0-73.9-33.1-73.9-73.9
					v-8.8c0-40.7,33.1-73.9,73.9-73.9h257.5c40.7,0,73.9,33.1,73.9,73.9v8.8C995.7,2778.1,962.6,2811.2,921.9,2811.2z"/>
			</g>
		</g>
	</g>
</g>
</svg>
